<svg width="29" height="28" viewBox="0 0 29 28" fill="none" xmlns="http://www.w3.org/2000/svg">
<path d="M6.96777 21.8633H22.0234C23.9219 21.8633 24.9062 20.8877 24.9062 19.0156V8.31055C24.9062 6.43848 23.9219 5.46289 22.0234 5.46289H6.96777C5.06934 5.46289 4.08496 6.42969 4.08496 8.31055V19.0156C4.08496 20.8877 5.06934 21.8633 6.96777 21.8633ZM7.07324 20.1406C6.25586 20.1406 5.80762 19.7188 5.80762 18.8662V8.45996C5.80762 7.60742 6.25586 7.17676 7.07324 7.17676H21.918C22.7266 7.17676 23.1836 7.60742 23.1836 8.45996V18.8662C23.1836 19.7188 22.7266 20.1406 21.918 20.1406H7.07324ZM19.3076 17.1436C20.8809 17.1436 21.9268 16.3438 21.9268 15.1221C21.9268 14.252 21.2764 13.5664 20.3975 13.4873V13.4697C21.1182 13.3643 21.6982 12.6963 21.6982 11.9141C21.6982 10.8594 20.7314 10.1123 19.3691 10.1123C18.1914 10.1123 17.251 10.666 17.0312 11.5273C16.9961 11.6504 16.9873 11.7295 16.9873 11.8613C16.9873 12.1689 17.207 12.3887 17.5498 12.3887C17.8311 12.3887 18.0068 12.2656 18.1123 12.002C18.2793 11.4746 18.7363 11.167 19.3516 11.167C20.0371 11.167 20.459 11.5098 20.459 12.0547C20.459 12.6172 19.9844 13.0215 19.3252 13.0215H18.8945C18.5957 13.0215 18.376 13.2324 18.376 13.5225C18.376 13.8213 18.5957 14.0322 18.8945 14.0322H19.3604C20.1426 14.0322 20.6699 14.4453 20.6699 15.0605C20.6699 15.6758 20.1338 16.0801 19.334 16.0801C18.6748 16.0801 18.1914 15.7812 18.0068 15.2539C17.875 14.9814 17.708 14.8672 17.4268 14.8672C17.084 14.8672 16.8555 15.0957 16.8555 15.4297C16.8555 15.5352 16.873 15.6055 16.8994 15.7197C17.1104 16.5635 18.1123 17.1436 19.3076 17.1436ZM9.45508 17.1348C9.85938 17.1348 10.1055 16.8711 10.1055 16.4404V10.833C10.1055 10.376 9.8418 10.1211 9.40234 10.1211C9.08594 10.1211 8.90137 10.209 8.55859 10.4375L7.24023 11.3164C7.06445 11.4395 6.98535 11.5801 6.98535 11.7646C6.98535 12.0283 7.19629 12.2393 7.44238 12.2393C7.56543 12.2393 7.64453 12.2217 7.8291 12.0986L8.74316 11.4922H8.81348V16.4404C8.81348 16.8623 9.05957 17.1348 9.45508 17.1348ZM11.9072 17.0293H15.7041C16.0293 17.0293 16.2578 16.8008 16.2578 16.4844C16.2578 16.1592 16.0293 15.9395 15.7041 15.9395L13.1289 15.9482V15.9131L14.8164 14.1465C15.4932 13.4434 15.9502 12.8457 15.9502 12.0547C15.9502 10.8857 15.0273 10.1211 13.6035 10.1211C12.5488 10.1211 11.582 10.7363 11.3359 11.6064C11.3096 11.7207 11.3008 11.8174 11.3008 11.9229C11.3008 12.248 11.5117 12.459 11.8457 12.459C12.1357 12.459 12.3027 12.3008 12.4346 12.0547C12.6104 11.6152 12.9795 11.1846 13.6475 11.1846C14.2979 11.1846 14.7461 11.5625 14.7461 12.1338C14.7461 12.626 14.333 13.0654 13.9023 13.5137L11.5557 15.957C11.3975 16.1064 11.3096 16.2734 11.3096 16.4756C11.3096 16.8096 11.5469 17.0293 11.9072 17.0293Z" fill="#4F555D"/>
</svg>
