<svg width="34" height="28" viewBox="0 0 34 28" fill="none" xmlns="http://www.w3.org/2000/svg">
<path d="M0.353516 14.291C0.353516 14.8184 0.582031 15.3457 0.986328 15.7324L12.5879 27.3164C13.0098 27.7207 13.4668 27.9141 13.9766 27.9141C15.084 27.9141 15.8926 27.123 15.8926 26.0508C15.8926 25.4883 15.6816 25.0137 15.3125 24.6621L11.3574 20.6543L6.25977 15.9961L10.3555 16.2422H31.6602C32.8203 16.2422 33.6289 15.4336 33.6289 14.291C33.6289 13.1309 32.8203 12.3223 31.6602 12.3223H10.3555L6.27734 12.5684L11.3574 7.91016L15.3125 3.90234C15.6816 3.55078 15.8926 3.07617 15.8926 2.51367C15.8926 1.44141 15.084 0.650391 13.9766 0.650391C13.4668 0.650391 12.9922 0.84375 12.5352 1.2832L0.986328 12.832C0.582031 13.2188 0.353516 13.7461 0.353516 14.291Z" fill="#1A1A1A"/>
</svg>
