<svg width="29" height="28" viewBox="0 0 29 28" fill="none" xmlns="http://www.w3.org/2000/svg">
<path d="M9.81445 23.1816H19.1836C21.0732 23.1816 22.0488 22.1885 22.0488 20.29V12.3096C22.0488 11.0791 21.8906 10.5166 21.126 9.73438L16.5293 5.06738C15.7822 4.31152 15.167 4.13574 14.0596 4.13574H9.81445C7.93359 4.13574 6.94922 5.12891 6.94922 7.03613V20.29C6.94922 22.1885 7.93359 23.1816 9.81445 23.1816ZM9.96387 21.4238C9.12012 21.4238 8.69824 20.9844 8.69824 20.1758V7.1416C8.69824 6.3418 9.12012 5.89355 9.97266 5.89355H13.6992V10.6748C13.6992 11.9492 14.3232 12.5645 15.5889 12.5645H20.2998V20.1758C20.2998 20.9844 19.8779 21.4238 19.0254 21.4238H9.96387ZM15.7559 11.0264C15.3867 11.0264 15.2285 10.8682 15.2285 10.5078V6.12207L20.0625 11.0264H15.7559ZM15.2725 19.6221V16.9678L15.2021 15.6055L15.8789 16.3174L16.5381 16.9941C16.6699 17.1348 16.8721 17.2227 17.0566 17.2227C17.4609 17.2227 17.7598 16.9414 17.7598 16.5547C17.7598 16.3262 17.6719 16.168 17.5049 16.0186L15.0879 13.8037C14.8857 13.6191 14.7188 13.5312 14.499 13.5312C14.2793 13.5312 14.1123 13.6191 13.9102 13.8037L11.4932 16.0186C11.3262 16.168 11.2383 16.3262 11.2383 16.5547C11.2383 16.9414 11.5371 17.2227 11.9414 17.2227C12.126 17.2227 12.3281 17.1348 12.46 16.9941L13.1191 16.3174L13.7959 15.6055L13.7256 16.9678V19.6221C13.7256 20.0439 14.0771 20.3691 14.499 20.3691C14.9209 20.3691 15.2725 20.0439 15.2725 19.6221Z" fill="#4F555D"/>
</svg>
