<svg width="20" height="19" viewBox="0 0 20 19" fill="none" xmlns="http://www.w3.org/2000/svg">
<path d="M18.1563 1.51897C17.1116 0.484375 15.6853 0.273438 13.8471 0.273438H6.13282C4.31474 0.273438 2.8884 0.484375 1.8538 1.51897C0.819205 2.54353 0.628357 3.95982 0.628357 5.7779V13.4319C0.628357 15.2801 0.819205 16.6964 1.8538 17.721C2.8884 18.7556 4.31474 18.9565 6.15291 18.9565H13.8471C15.6853 18.9565 17.1217 18.7556 18.1563 17.721C19.1808 16.6864 19.3717 15.2801 19.3717 13.4319V5.80804C19.3717 3.95982 19.1808 2.54353 18.1563 1.51897ZM17.3728 5.52679V13.7132C17.3728 14.7578 17.2422 15.702 16.6897 16.2545C16.1272 16.817 15.173 16.9576 14.1284 16.9576H5.88171C4.83706 16.9576 3.87278 16.8069 3.32032 16.2545C2.76787 15.702 2.62724 14.7578 2.62724 13.7132V5.54687C2.62724 4.48214 2.76787 3.5279 3.32032 2.97545C3.87278 2.42299 4.83706 2.28237 5.90179 2.28237H14.1284C15.173 2.28237 16.1272 2.42299 16.6897 2.97545C17.2422 3.53795 17.3728 4.48214 17.3728 5.52679ZM13.144 12.2366C13.6462 12.2366 13.9676 11.865 13.9676 11.3225V6.65179C13.9676 5.94866 13.5759 5.63728 12.9431 5.63728H8.25224C7.69979 5.63728 7.34822 5.9587 7.34822 6.46094C7.34822 6.97321 7.70983 7.29464 8.26229 7.29464H9.94979L11.3159 7.13393L9.83929 8.48995L6.32367 12.0056C6.15291 12.1763 6.03237 12.4074 6.03237 12.6484C6.03237 13.1908 6.41407 13.5424 6.92635 13.5424C7.19755 13.5424 7.41854 13.442 7.60938 13.2612L11.115 9.75558L12.4509 8.29911L12.3103 9.73549V11.3326C12.3103 11.885 12.6317 12.2366 13.144 12.2366Z" fill="#4F555D"/>
</svg>
