<svg width="20" height="17" viewBox="0 0 20 17" fill="none" xmlns="http://www.w3.org/2000/svg">
<path d="M19.5022 8.59494C19.5022 8.28355 19.3716 7.98221 19.1406 7.76123L12.5412 1.1619C12.2801 0.910784 12.0089 0.800293 11.7276 0.800293C11.0848 0.800293 10.6227 1.2523 10.6227 1.86503C10.6227 2.18645 10.7533 2.45766 10.9542 2.65855L13.2142 4.94873L16.1272 7.61056L13.7968 7.46994H1.62272C0.949724 7.46994 0.487671 7.93199 0.487671 8.59494C0.487671 9.24784 0.949724 9.70989 1.62272 9.70989H13.7968L16.1272 9.56927L13.2142 12.2311L10.9542 14.5213C10.7533 14.7222 10.6227 14.9934 10.6227 15.3148C10.6227 15.9275 11.0848 16.3795 11.7276 16.3795C12.0089 16.3795 12.2801 16.269 12.5212 16.038L19.1406 9.4186C19.3716 9.19761 19.5022 8.89628 19.5022 8.59494Z" fill="#2A85FF"/>
</svg>
