<svg width="30" height="33" viewBox="0 0 30 33" fill="none" xmlns="http://www.w3.org/2000/svg">
<path d="M2.87109 26.5625H9.07868C9.18415 29.4252 11.5346 32.077 15 32.077C18.4503 32.077 20.8158 29.4553 20.9364 26.5625H27.1289C28.6959 26.5625 29.6602 25.7036 29.6602 24.4079C29.6602 22.7957 28.1987 21.4246 26.8276 20.1138C25.7578 19.0742 25.5017 16.9949 25.3058 14.8705C25.0949 9.19026 23.4224 5.39338 19.505 3.97709C18.9174 1.97318 17.245 0.451416 15 0.451416C12.755 0.451416 11.0826 1.97318 10.51 3.97709C6.57757 5.39338 4.9202 9.19026 4.6942 14.8705C4.49833 16.9949 4.24219 19.0742 3.17243 20.1138C1.80134 21.4246 0.339844 22.7957 0.339844 24.4079C0.339844 25.7036 1.30413 26.5625 2.87109 26.5625ZM4.01618 23.76V23.5792C4.40792 23.1423 5.28181 22.3437 6.02009 21.5C7.05971 20.3097 7.54185 18.1099 7.69252 15.2472C7.87333 9.20532 9.74163 7.17128 12.1523 6.5234C12.529 6.41793 12.7249 6.23713 12.755 5.83032C12.8304 4.30856 13.6892 3.28401 15 3.28401C16.3259 3.28401 17.1696 4.30856 17.245 5.83032C17.2751 6.23713 17.486 6.41793 17.8477 6.5234C20.2734 7.17128 22.1267 9.20532 22.3075 15.2472C22.4732 18.1099 22.9554 20.3097 23.9799 21.5C24.7182 22.3437 25.5619 23.1423 25.9537 23.5792V23.76H4.01618ZM15 29.6512C13.2974 29.6512 12.077 28.4308 11.9715 26.5625H18.0435C17.9531 28.4157 16.7176 29.6512 15 29.6512Z" fill="#1A1A1A"/>
</svg>
