<svg width="17" height="16" viewBox="0 0 17 16" fill="none" xmlns="http://www.w3.org/2000/svg">
<path d="M8.5752 15.0973C8.20352 15.6814 7.65485 16 6.99998 16C6.34512 16 5.83184 15.7168 5.35396 15.115L1.17697 10.0354C0.876089 9.64602 0.716797 9.25664 0.716797 8.83186C0.716797 7.9469 1.40706 7.23894 2.29202 7.23894C2.80529 7.23894 3.23007 7.43363 3.65485 7.9823L6.94688 12.1416L13.9911 0.902655C14.3628 0.300885 14.8407 0 15.3717 0C16.2212 0 17 0.584071 17 1.46903C17 1.87611 16.8053 2.30088 16.5575 2.67257L8.5752 15.0973Z" fill="#FDFDFD"/>
</svg>
