<svg width="32" height="32" viewBox="0 0 32 32" fill="none" xmlns="http://www.w3.org/2000/svg">
<path d="M21.1299 16.0001C21.1198 15.6485 20.9893 15.3271 20.708 15.0659L12.8933 7.43199C12.6723 7.21101 12.391 7.09047 12.0596 7.09047C11.3966 7.09047 10.8643 7.61279 10.8643 8.27574C10.8643 8.59717 10.9948 8.90855 11.2259 9.13958L18.2672 15.99L11.2259 22.8606C11.0049 23.0916 10.8643 23.3929 10.8643 23.7244C10.8643 24.3873 11.3966 24.9097 12.0596 24.9097C12.391 24.9097 12.6723 24.7891 12.8933 24.5682L20.708 16.9242C20.9893 16.653 21.1299 16.3516 21.1299 16.0001Z" fill="#8A939F"/>
</svg>
