<svg width="22" height="21" viewBox="0 0 22 21" fill="none" xmlns="http://www.w3.org/2000/svg">
<path d="M10.9899 20.9911C16.6852 20.9911 21.3861 16.2902 21.3861 10.6049C21.3861 4.91964 16.6752 0.21875 10.9799 0.21875C5.29461 0.21875 0.60376 4.91964 0.60376 10.6049C0.60376 16.2902 5.30465 20.9911 10.9899 20.9911ZM10.9899 18.9219C6.37943 18.9219 2.69305 15.2154 2.69305 10.6049C2.69305 5.99442 6.37943 2.29799 10.9799 2.29799C15.5904 2.29799 19.2968 5.99442 19.3069 10.6049C19.3169 15.2154 15.6004 18.9219 10.9899 18.9219ZM5.92742 11.8705H10.9799C11.4419 11.8705 11.7935 11.519 11.7935 11.067V4.49777C11.7935 4.04576 11.4419 3.6942 10.9799 3.6942C10.5379 3.6942 10.1863 4.04576 10.1863 4.49777V10.2634H5.92742C5.47541 10.2634 5.12385 10.615 5.12385 11.067C5.12385 11.519 5.47541 11.8705 5.92742 11.8705Z" fill="#8A939F"/>
</svg>
