<svg width="24" height="24" viewBox="0 0 28 28" fill="none" xmlns="http://www.w3.org/2000/svg">
<path d="M13.9902 22.7422C18.9736 22.7422 23.0869 18.6289 23.0869 13.6543C23.0869 8.67969 18.9648 4.56641 13.9814 4.56641C9.00684 4.56641 4.90234 8.67969 4.90234 13.6543C4.90234 18.6289 9.01562 22.7422 13.9902 22.7422ZM13.9902 15.1572C13.4717 15.1572 13.1729 14.8672 13.1553 14.3398L13.0322 9.9541C13.0146 9.40918 13.4014 9.03125 13.9814 9.03125C14.5439 9.03125 14.957 9.41797 14.9395 9.96289L14.7988 14.3398C14.7812 14.876 14.4912 15.1572 13.9902 15.1572ZM13.9902 18.1982C13.3926 18.1982 12.9004 17.7676 12.9004 17.1875C12.9004 16.6074 13.3838 16.1768 13.9902 16.1768C14.5879 16.1768 15.0713 16.6074 15.0713 17.1875C15.0713 17.7764 14.5791 18.1982 13.9902 18.1982Z" fill="#8A939F"/>
</svg>
