<svg width="405" height="302" viewBox="0 0 405 302" fill="none" xmlns="http://www.w3.org/2000/svg">
<path d="M389.876 150.389C386.255 121.419 377.195 93.4476 366.373 73.3941C340.23 25.2077 267.401 -7.0239 212.53 1.31296C165.726 8.41592 143.237 51.3019 101.037 66.1838C62.2136 79.8747 27.2572 90.4433 8.95639 126.57C-29.814 202.878 64.9593 286.3 146.186 279.798C171.826 277.738 194.732 267.835 221.045 272.481C274.463 281.912 292.197 292.051 339.375 273.189C385.859 254.595 396.212 201.065 389.876 150.389Z" fill="#2A85FF"/>
<path opacity="0.8" d="M389.876 150.389C386.255 121.419 377.195 93.4476 366.373 73.3941C340.23 25.2077 267.401 -7.0239 212.53 1.31296C165.726 8.41592 143.237 51.3019 101.037 66.1838C62.2136 79.8747 27.2572 90.4433 8.95639 126.57C-29.814 202.878 64.9593 286.3 146.186 279.798C171.826 277.738 194.732 267.835 221.045 272.481C274.463 281.912 292.197 292.051 339.375 273.189C385.859 254.595 396.212 201.065 389.876 150.389Z" fill="white"/>
<path d="M202.99 296.225L157.425 193.758H267.839L404 283.961" fill="white"/>
<path d="M202.99 296.225L157.425 193.758H267.839L404 283.961" stroke="#263238" stroke-width="0.75" stroke-linecap="round" stroke-linejoin="round"/>
<path d="M191.687 292.191L157.425 200.593V193.758L205.896 301L191.687 292.191Z" fill="#263238" stroke="#263238" stroke-width="0.75" stroke-linecap="round" stroke-linejoin="round"/>
<path d="M220.553 197.996L267.518 253.286L210.511 266.623L178.118 204.82L220.553 197.996Z" fill="white" stroke="#263238" stroke-width="0.75" stroke-linecap="round" stroke-linejoin="round"/>
<path d="M210.511 266.623V268.254L266.546 256.87L267.518 253.286L210.511 266.623Z" fill="#263238" stroke="#263238" stroke-width="0.75" stroke-linecap="round" stroke-linejoin="round"/>
<path d="M218.779 217.889L221.183 221.451L227.294 219.788L224.751 216.312L218.779 217.889Z" fill="#263238"/>
<path d="M241.91 239.681L239.004 235.732L232.06 237.61L234.773 241.644L241.91 239.681Z" fill="#263238"/>
<path d="M213.791 210.464L215.575 213.125L221.323 211.655L219.517 209.187L213.791 210.464Z" fill="#263238"/>
<path d="M224.859 226.912L228.15 231.805L234.87 230.099L231.237 225.153L224.859 226.912Z" fill="#263238"/>
<path d="M242.26 229.209L236.502 230.679L239.387 234.606L245.252 233.018L242.26 229.209Z" fill="#263238"/>
<path d="M228.737 232.664L231.483 236.762L238.384 234.885L235.489 230.936L228.737 232.664Z" fill="#263238"/>
<path d="M207.285 211.913L209.059 214.788L214.571 213.372L212.766 210.689L207.285 211.913Z" fill="#263238"/>
<path d="M221.75 222.299L224.293 226.065L230.617 224.305L227.914 220.625L221.75 222.299Z" fill="#263238"/>
<path d="M216.151 213.973L218.203 217.031L224.121 215.464L221.942 212.492L216.151 213.973Z" fill="#263238"/>
<path d="M203.717 220.872L201.922 217.621L195.373 219.295L197.2 222.599L203.717 220.872Z" fill="#263238"/>
<path d="M194.305 228.737L198.803 227.524L196.72 223.747L192.297 224.917L194.305 228.737Z" fill="#263238"/>
<path d="M205.339 208.758L206.738 211.034L212.176 209.821L210.713 207.653L205.339 208.758Z" fill="#263238"/>
<path d="M201.43 216.73L199.7 213.597L193.044 215.067L194.882 218.404L201.43 216.73Z" fill="#263238"/>
<path d="M198.877 210.078L200.202 212.482L205.736 211.259L204.315 208.962L198.877 210.078Z" fill="#263238"/>
<path d="M189.573 219.767L193.91 218.651L192.051 215.292L187.725 216.247L189.573 219.767Z" fill="#263238"/>
<path d="M191.162 211.666L192.551 214.177L199.207 212.707L197.871 210.282L191.162 211.666Z" fill="#263238"/>
<path d="M212.07 219.67L214.314 223.308L220.19 221.719L217.786 218.157L212.07 219.67Z" fill="#263238"/>
<path d="M227.155 232.063L223.876 227.191L217.754 228.887L220.724 233.705L227.155 232.063Z" fill="#263238"/>
<path d="M200.693 213.372L202.403 216.484L208.065 215.035L206.281 212.138L200.693 213.372Z" fill="#263238"/>
<path d="M201.975 233.254L197.359 234.53L199.752 239.069L204.507 237.857L201.975 233.254Z" fill="#263238"/>
<path d="M214.848 224.177L217.219 228.018L223.298 226.344L220.766 222.567L214.848 224.177Z" fill="#263238"/>
<path d="M210.554 219.069L208.599 215.904L202.894 217.363L204.688 220.625L210.554 219.069Z" fill="#263238"/>
<path d="M221.271 252.706L214.743 254.38L217.072 258.597L223.621 256.977L221.271 252.706Z" fill="#263238"/>
<path d="M211.163 206.569L216.75 205.421L213.748 201.323L208.246 202.235L211.163 206.569Z" fill="#263238"/>
<path d="M197.381 209.391L194.678 204.488L187.83 205.625L190.672 210.776L197.381 209.391Z" fill="#263238"/>
<path d="M206.27 225.496L204.208 221.752L197.691 223.479L199.775 227.256L206.27 225.496Z" fill="#263238"/>
<path d="M222.904 239.091L220.276 234.831L213.481 236.569L215.917 240.99L222.904 239.091Z" fill="#263238"/>
<path d="M219.741 233.962L216.77 229.155L210.371 230.925L212.989 235.679L219.741 233.962Z" fill="#263238"/>
<path d="M230.488 237.031L227.732 232.921L221.258 234.573L223.886 238.823L230.488 237.031Z" fill="#263238"/>
<path d="M213.331 223.576L211.088 219.928L205.169 221.505L207.231 225.228L213.331 223.576Z" fill="#263238"/>
<path d="M209.593 215.657L211.537 218.801L217.21 217.299L215.148 214.23L209.593 215.657Z" fill="#263238"/>
<path d="M216.237 228.297L213.866 224.445L207.712 226.108L209.891 230.056L216.237 228.297Z" fill="#263238"/>
<path d="M233.791 241.923L231.067 237.889L224.422 239.691L226.954 243.801L233.791 241.923Z" fill="#263238"/>
<path d="M229.399 249.616L226.504 244.927L219.196 246.945L221.76 251.569L229.399 249.616Z" fill="#263238"/>
<path d="M207.496 243.275L204.996 238.736L200.221 239.96L202.657 244.595L207.496 243.275Z" fill="#263238"/>
<path d="M199.293 228.404L194.773 229.627L196.899 233.651L201.483 232.385L199.293 228.404Z" fill="#263238"/>
<path d="M220.779 251.827L218.236 247.202L211.762 248.983L214.251 253.49L220.779 251.827Z" fill="#263238"/>
<path d="M208.918 230.314L206.749 226.376L200.254 228.136L202.455 232.117L208.918 230.314Z" fill="#263238"/>
<path d="M211.749 207.439L213.202 209.596L218.886 208.33L217.379 206.28L211.749 207.439Z" fill="#263238"/>
<path d="M187.253 215.358L191.559 214.403L190.17 211.87L185.875 212.75L187.253 215.358Z" fill="#263238"/>
<path d="M204.784 207.868L210.126 206.773L207.188 202.406L201.953 203.275L204.784 207.868Z" fill="#263238"/>
<path d="M198.387 209.188L203.782 208.082L200.919 203.447L195.694 204.316L198.387 209.188Z" fill="#263238"/>
<path d="M196.238 222.868L194.401 219.541L190.042 220.657L191.826 224.026L196.238 222.868Z" fill="#263238"/>
<path d="M217.796 205.207L222.625 204.209L219.591 200.357L214.815 201.14L217.796 205.207Z" fill="#263238"/>
<path d="M189.668 210.979L186.805 205.786L182.574 206.494L185.405 211.848L189.668 210.979Z" fill="#263238"/>
<path d="M213.77 254.627L208.642 255.936L210.864 260.142L216.099 258.844L213.77 254.627Z" fill="#263238"/>
<path d="M238.14 248.382L230.918 250.228L233.557 254.509L241.014 252.653L238.14 248.382Z" fill="#263238"/>
<path d="M229.934 250.485L222.242 252.449L224.603 256.73L232.562 254.756L229.934 250.485Z" fill="#263238"/>
<path d="M246.686 246.193L239.144 248.125L242.017 252.406L249.827 250.464L246.686 246.193Z" fill="#263238"/>
<path d="M254.11 244.294L247.7 245.936L250.852 250.217L257.476 248.565L254.11 244.294Z" fill="#263238"/>
<path d="M210.799 249.251L205.831 250.614L208.171 255.056L213.277 253.747L210.799 249.251Z" fill="#263238"/>
<path d="M225.969 244.069L223.437 239.96L216.407 241.869L218.715 246.065L225.969 244.069Z" fill="#263238"/>
<path d="M237.561 247.524L234.356 242.771L227.486 244.659L230.382 249.359L237.561 247.524Z" fill="#263238"/>
<path d="M217.754 246.322L215.436 242.127L208.951 243.897L211.28 248.104L217.754 246.322Z" fill="#263238"/>
<path d="M205.372 249.734L210.319 248.372L207.99 244.155L203.129 245.475L205.372 249.734Z" fill="#263238"/>
<path d="M212.017 235.936L209.411 231.194L202.937 232.985L205.479 237.599L212.017 235.936Z" fill="#263238"/>
<path d="M246.065 245.346L242.529 240.528L235.35 242.503L238.565 247.267L246.065 245.346Z" fill="#263238"/>
<path d="M214.955 241.247L212.509 236.816L205.971 238.49L208.471 243.018L214.955 241.247Z" fill="#263238"/>
<path d="M232.242 224.874L235.885 229.831L241.601 228.372L237.669 223.372L232.242 224.874Z" fill="#263238"/>
<path d="M225.137 215.196L230.201 213.855L227.925 210.968L222.968 212.235L225.137 215.196Z" fill="#263238"/>
<path d="M220.563 208.962L222.337 211.388L227.273 210.132L225.489 207.868L220.563 208.962Z" fill="#263238"/>
<path d="M253.448 243.458L249.623 238.576L243.533 240.249L247.08 245.089L253.448 243.458Z" fill="#263238"/>
<path d="M225.757 216.043L228.31 219.509L233.524 218.093L230.853 214.691L225.757 216.043Z" fill="#263238"/>
<path d="M240.009 235.453L242.915 239.413L248.972 237.75L245.906 233.854L240.009 235.453Z" fill="#263238"/>
<path d="M219.923 208.105L224.826 207.021L223.299 205.067L218.438 206.065L219.923 208.105Z" fill="#263238"/>
<path d="M231.622 224.037L237.017 222.535L234.186 218.93L228.93 220.357L231.622 224.037Z" fill="#263238"/>
<path d="M274.965 204.177V212.953C274.077 213.815 273.099 214.578 272.048 215.228C270.435 216.204 257.155 218.447 257.155 218.447L273.992 236.998C273.992 236.998 289.43 235.303 293.757 234.069C298.287 232.76 297.315 216.172 297.315 216.172L274.965 204.177Z" fill="white" stroke="#263238" stroke-width="0.75" stroke-linecap="round" stroke-linejoin="round"/>
<path d="M274.964 204.177V212.953C274.964 212.953 274.729 213.189 274.345 213.533L294.034 233.983C298.244 232.084 297.314 216.204 297.314 216.204L274.964 204.177Z" fill="#263238" stroke="#263238" stroke-width="0.75" stroke-linecap="round" stroke-linejoin="round"/>
<path d="M245.168 91.9455V184.981L315.775 240.925V97.1493L245.168 91.9455Z" fill="white" stroke="#263238" stroke-width="0.75" stroke-linecap="round" stroke-linejoin="round"/>
<path d="M250.029 96.8274V175.217L309.301 211.977V102.031L250.029 96.8274Z" fill="#2A85FF" stroke="#263238" stroke-width="0.75" stroke-linecap="round" stroke-linejoin="round"/>
<path d="M322.899 97.1493H315.773V240.957H322.899V97.1493Z" fill="#263238" stroke="#263238" stroke-width="0.75" stroke-linecap="round" stroke-linejoin="round"/>
<path d="M253.917 101.709L254.238 171.645L303.788 199.938V113.34L269.782 108.169L267.517 103.33L253.917 101.709Z" fill="white" stroke="#263238" stroke-width="0.75" stroke-linecap="round" stroke-linejoin="round"/>
<path d="M257.155 110.164V169.692L300.883 193.114V117.975L257.155 110.164Z" fill="#2A85FF" stroke="#263238" stroke-width="0.75" stroke-linecap="round" stroke-linejoin="round"/>
<path d="M282.73 168.266C288.9 166.186 291.587 157.577 288.733 149.039C285.878 140.5 278.562 135.265 272.393 137.345C266.223 139.425 263.536 148.034 266.39 156.573C269.245 165.111 276.561 170.347 282.73 168.266Z" fill="#263238"/>
<path d="M278.851 153.78L283.007 149.155C283.288 148.743 283.431 148.253 283.418 147.754C283.404 147.255 283.235 146.773 282.932 146.376C282.313 145.486 281.341 145.303 280.796 145.937L276.8 150.389L272.794 143.952C272.217 143.018 271.245 142.728 270.657 143.308C270.347 143.692 270.171 144.167 270.156 144.661C270.141 145.155 270.287 145.641 270.572 146.044L274.728 152.75L270.497 157.353C270.216 157.765 270.074 158.257 270.089 158.756C270.104 159.256 270.277 159.737 270.582 160.132C270.826 160.52 271.208 160.8 271.651 160.915C271.843 160.963 272.045 160.956 272.233 160.895C272.422 160.835 272.59 160.723 272.719 160.572L276.725 156.119L280.721 162.557C280.967 162.994 281.373 163.318 281.853 163.458C282.038 163.516 282.235 163.523 282.423 163.478C282.611 163.432 282.784 163.336 282.922 163.2C283.228 162.814 283.401 162.338 283.415 161.845C283.428 161.351 283.281 160.867 282.997 160.464L278.851 153.78Z" fill="white"/>
<path d="M264.921 130.336L289.407 137.557" stroke="#263238" stroke-width="0.75" stroke-linecap="round" stroke-linejoin="round"/>
<path d="M263.949 123.501L295.69 132.396" stroke="#263238" stroke-width="0.75" stroke-linecap="round" stroke-linejoin="round"/>
<path d="M285.83 276.783C285.83 276.783 270.349 278.221 264.623 282.824C258.897 287.428 263.192 289.735 268.629 291.172C274.067 292.61 298.436 290.303 301.588 287.138C304.74 283.973 301.588 276.204 285.83 276.783Z" fill="white" stroke="#263238" stroke-width="0.75" stroke-linecap="round" stroke-linejoin="round"/>
<path d="M301.589 287.18C302.197 286.57 302.575 285.766 302.657 284.906C295.723 284.562 286.632 286.58 278.373 289.198C275.585 290.089 272.754 290.837 269.891 291.44C277.091 292.309 298.64 290.099 301.589 287.18Z" fill="#263238" stroke="#263238" stroke-width="0.75" stroke-linecap="round" stroke-linejoin="round"/>
<path d="M230.95 106.023L242.264 111.935" stroke="#263238" stroke-linecap="round" stroke-linejoin="round"/>
<path d="M224.454 102.632L227.819 104.392" stroke="#263238" stroke-linecap="round" stroke-linejoin="round"/>
<path d="M233.438 135.808L237.273 136.249" stroke="#263238" stroke-linecap="round" stroke-linejoin="round"/>
<path d="M218.758 134.102L229.099 135.304" stroke="#263238" stroke-linecap="round" stroke-linejoin="round"/>
<path d="M235.851 163.436L223.031 167.01" stroke="#263238" stroke-linecap="round" stroke-linejoin="round"/>
<path d="M219.304 6.06619C213.24 6.06619 207.312 7.87222 202.27 11.2559C197.227 14.6396 193.297 19.4489 190.977 25.0757C188.656 30.7025 188.049 36.8942 189.232 42.8676C190.415 48.841 193.335 54.3279 197.623 58.6345C201.911 62.9411 207.375 65.8739 213.322 67.0621C219.27 68.2503 225.435 67.6405 231.038 65.3098C236.641 62.9791 241.429 59.0321 244.798 53.9681C248.168 48.9041 249.966 42.9504 249.966 36.86C249.966 28.693 246.735 20.8604 240.985 15.0855C235.235 9.31053 227.436 6.06619 219.304 6.06619ZM219.304 61.6023C214.432 61.6002 209.67 60.1473 205.62 57.4273C201.57 54.7073 198.414 50.8423 196.551 46.321C194.688 41.7998 194.202 36.8253 195.153 32.0264C196.105 27.2276 198.452 22.8199 201.898 19.3607C205.344 15.9015 209.734 13.5461 214.513 12.5923C219.291 11.6385 224.244 12.1291 228.745 14.0021C233.246 15.8751 237.093 19.0464 239.8 23.115C242.506 27.1836 243.951 31.9669 243.951 36.86C243.957 40.1132 243.323 43.3356 242.087 46.3425C240.85 49.3495 239.036 52.0819 236.746 54.3832C234.456 56.6846 231.737 58.5097 228.744 59.754C225.751 60.9983 222.543 61.6373 219.304 61.6345V61.6023Z" fill="#263238"/>
<path d="M221.494 36.8922C221.504 37.3294 221.385 37.7598 221.151 38.1285C220.917 38.4973 220.579 38.7875 220.18 38.9623C219.78 39.137 219.338 39.1883 218.91 39.1096C218.482 39.0309 218.087 38.8257 217.775 38.5203C217.463 38.2149 217.249 37.8232 217.16 37.3951C217.071 36.967 217.112 36.522 217.276 36.1169C217.44 35.7119 217.72 35.3651 218.082 35.121C218.443 34.8768 218.868 34.7463 219.304 34.7462C219.875 34.746 220.425 34.9704 220.834 35.3714C221.243 35.7724 221.48 36.3182 221.494 36.8922Z" fill="#263238"/>
<path d="M211.964 48.0621L219.303 36.8922L231.707 47.2037" stroke="#263238" stroke-linecap="round" stroke-linejoin="round"/>
<path d="M56.593 60.4971L52.9072 50.3791L54.873 52.6001V49.1452L59.0502 55.5615L55.3644 32.611L60.2788 45.1967L60.7703 34.0916L61.5074 37.7934L62.4903 25.2076L64.2104 44.4564L66.6676 37.7934L66.1761 46.4306L72.8106 26.6883L69.6162 51.3662L74.2849 47.9113L71.582 52.3533L75.0221 49.8855L71.1012 61.2374L56.8388 61.4842" fill="#2A85FF"/>
<path d="M72.3606 85.4219H56.9977L52.8525 58.6838H76.4951L72.3606 85.4219Z" fill="#263238" stroke="#263238" stroke-linecap="round" stroke-linejoin="round"/>
<path d="M114.423 85.2394H36.8711V292.438H114.423V85.2394Z" fill="white" stroke="#263238" stroke-linecap="round" stroke-linejoin="round"/>
<path d="M109.146 92.042H41.3809V141.945H109.146V92.042Z" stroke="#263238" stroke-linecap="round" stroke-linejoin="round"/>
<path d="M88.814 112.46H61.71V121.538H88.814V112.46Z" fill="#263238"/>
<path d="M109.146 150.271H41.3809V200.174H109.146V150.271Z" stroke="#263238" stroke-linecap="round" stroke-linejoin="round"/>
<path d="M88.814 170.69H61.71V179.767H88.814V170.69Z" fill="#263238"/>
<path d="M109.146 208.49H41.3809V258.393H109.146V208.49Z" stroke="#263238" stroke-linecap="round" stroke-linejoin="round"/>
<path d="M88.814 228.908H61.71V237.986H88.814V228.908Z" fill="#263238"/>
<path d="M122.735 280.614C122.735 280.614 161.601 263.371 182.498 262.073L197.743 295.903H82.5967L122.735 280.614Z" fill="#263238" stroke="#263238" stroke-width="0.75" stroke-linecap="round" stroke-linejoin="round"/>
<path d="M170.04 76.7738C170.04 76.7738 197.401 109.413 203.159 115.4C208.918 121.387 209.131 125.733 207.272 128.415C205.414 131.098 191.439 136.065 177.038 145.357C162.637 154.649 121.698 178.619 121.292 179.456C120.886 180.293 116.965 150.486 116.965 150.486L185.467 122.181L185.264 120.11L163.043 78.791L170.04 76.7738Z" fill="white"/>
<path d="M196.377 124.949L164.626 78.3832L163.098 78.8339L185.32 120.153L185.523 122.224L117.021 150.529C117.021 150.529 117.095 151.044 117.202 151.913L121.668 162.202L196.377 124.949Z" fill="#2A85FF"/>
<path opacity="0.5" d="M196.377 124.949L164.626 78.3832L163.098 78.8339L185.32 120.153L185.523 122.224L117.021 150.529C117.021 150.529 117.095 151.044 117.202 151.913L121.668 162.202L196.377 124.949Z" fill="white"/>
<path d="M170.04 76.7738C170.04 76.7738 197.401 109.413 203.159 115.4C208.918 121.387 209.131 125.733 207.272 128.415C205.414 131.098 191.439 136.065 177.038 145.357C162.637 154.649 121.698 178.619 121.292 179.456C120.886 180.293 116.965 150.486 116.965 150.486L185.467 122.181L185.264 120.11L163.043 78.791L170.04 76.7738Z" stroke="#263238" stroke-width="0.75" stroke-linecap="round" stroke-linejoin="round"/>
<path d="M148.237 62.5144C148.237 62.5144 144.947 59.6172 143.302 62.5144C141.656 65.4115 141.453 70.1541 142.479 70.5726C143.505 70.9911 147.618 70.3687 148.237 69.1241C148.857 67.8794 148.237 62.5144 148.237 62.5144Z" fill="white" stroke="#263238" stroke-width="0.75" stroke-linecap="round" stroke-linejoin="round"/>
<path d="M153.996 61.0659C153.996 61.0659 150.502 57.3533 148.237 58.7912C145.972 60.229 146.592 68.0941 147.415 68.7165C148.237 69.3388 153.173 67.6435 153.825 66.6456C154.477 65.6477 153.996 61.0659 153.996 61.0659Z" fill="white" stroke="#263238" stroke-width="0.75" stroke-linecap="round" stroke-linejoin="round"/>
<path d="M161.817 61.2698C161.817 61.2698 158.73 56.9778 155.856 56.9778C152.982 56.9778 150.909 67.3109 151.946 68.1371C152.982 68.9633 159.755 67.9332 160.172 67.3108C160.832 65.3294 161.381 63.3126 161.817 61.2698Z" fill="white" stroke="#263238" stroke-width="0.75" stroke-linecap="round" stroke-linejoin="round"/>
<path d="M167.831 68.298C167.831 67.0641 167.222 56.3126 163.558 56.9349C159.893 57.5573 155.951 66.2379 156.154 67.665C156.357 69.0921 167.831 68.298 167.831 68.298Z" fill="white" stroke="#263238" stroke-width="0.75" stroke-linecap="round" stroke-linejoin="round"/>
<path d="M185.469 122.224C185.469 122.224 195.96 126.151 199.87 125.937L185.469 122.224Z" fill="white"/>
<path d="M185.469 122.224C185.469 122.224 195.96 126.151 199.87 125.937" stroke="#263238" stroke-width="0.75" stroke-linecap="round" stroke-linejoin="round"/>
<path d="M99.1999 296.182C110.375 294.294 124.691 286.579 128.953 276.869C125.748 260.035 121.699 236.322 121.699 221.816C121.699 197.438 128.109 183.597 125.193 167.095C122.276 150.593 116.144 139.831 109.563 135.486C109.563 135.486 99.4883 138.168 89.2001 147.879C78.9119 157.589 69.863 174.284 66.3375 190.196C62.8119 206.108 58.1112 255.067 58.1112 267.878C58.1112 280.689 57.1924 296.59 57.1924 296.59C69.5105 296.59 81.8285 296.59 94.1466 296.59C95.8398 296.606 97.531 296.47 99.1999 296.182Z" fill="white"/>
<path d="M128.951 276.858C122.691 282.223 94.4972 292.641 90.384 293.564C86.2709 294.487 88.5572 285.753 94.9566 277.03C101.356 268.307 87.179 280.249 84.8927 281.161C82.6065 282.073 85.8115 264.165 85.8115 255.41C85.8115 246.655 94.0485 172.277 94.0485 172.277L109.593 143.79L114.935 140.572C113.443 138.58 111.639 136.844 109.593 135.432C109.593 135.432 99.5184 138.115 89.2302 147.825C78.942 157.535 69.8611 174.284 66.3355 190.196C62.8099 206.108 58.1092 255.067 58.1092 267.878C58.1092 280.689 57.1904 296.59 57.1904 296.59C69.5085 296.59 81.8266 296.59 94.1446 296.59C95.832 296.591 97.516 296.44 99.1766 296.139C110.373 294.294 124.689 286.579 128.951 276.858Z" fill="#2A85FF"/>
<path opacity="0.5" d="M128.951 276.858C122.691 282.223 94.4972 292.641 90.384 293.564C86.2709 294.487 88.5572 285.753 94.9566 277.03C101.356 268.307 87.179 280.249 84.8927 281.161C82.6065 282.073 85.8115 264.165 85.8115 255.41C85.8115 246.655 94.0485 172.277 94.0485 172.277L109.593 143.79L114.935 140.572C113.443 138.58 111.639 136.844 109.593 135.432C109.593 135.432 99.5184 138.115 89.2302 147.825C78.942 157.535 69.8611 174.284 66.3355 190.196C62.8099 206.108 58.1092 255.067 58.1092 267.878C58.1092 280.689 57.1904 296.59 57.1904 296.59C69.5085 296.59 81.8266 296.59 94.1446 296.59C95.832 296.591 97.516 296.44 99.1766 296.139C110.373 294.294 124.689 286.579 128.951 276.858Z" fill="white"/>
<path d="M99.1999 296.182C110.375 294.294 124.691 286.579 128.953 276.869C125.748 260.035 121.699 236.322 121.699 221.816C121.699 197.438 128.109 183.597 125.193 167.095C122.276 150.593 116.144 139.831 109.563 135.486C109.563 135.486 99.4883 138.168 89.2001 147.879C78.9119 157.589 69.863 174.284 66.3375 190.196C62.8119 206.108 58.1112 255.067 58.1112 267.878C58.1112 280.689 57.1924 296.59 57.1924 296.59C69.5105 296.59 81.8285 296.59 94.1466 296.59C95.8398 296.606 97.531 296.47 99.1999 296.182V296.182Z" stroke="#263238" stroke-width="0.75" stroke-linecap="round" stroke-linejoin="round"/>
<path d="M108.965 139.284L126.635 171.602L127.586 189.327C127.586 189.327 132.511 176.687 130.321 168.436C128.131 160.185 108.965 139.284 108.965 139.284Z" fill="#263238" stroke="#263238" stroke-width="0.75" stroke-linecap="round" stroke-linejoin="round"/>
<path d="M127.575 189.338L122.649 264.133L128.13 279.53L131.965 248.726L128.675 187.127L127.575 189.338Z" fill="#263238" stroke="#263238" stroke-width="0.75" stroke-linecap="round" stroke-linejoin="round"/>
<path d="M122.725 108.995C122.725 108.995 123.345 117.053 123.965 120.98C124.584 124.907 114.916 135.894 114.916 135.894L128.9 157.17L144.744 144.778C144.744 144.778 167.179 143.125 169.22 141.258C171.26 139.392 171.282 118.952 171.282 118.952L176.623 115.851C176.623 115.851 171.688 94.3918 170.459 89.6064L169.22 84.864C169.22 84.864 176.421 82.3747 174.775 75.2074C173.13 68.04 162.639 64.4778 152.148 66.1087C141.656 67.7396 138.986 71.6881 138.986 71.6881C138.986 71.6881 124.168 71.4842 115.738 78.5121C107.309 85.5399 112.448 96.6879 115.119 100.615C117.391 103.638 119.938 106.443 122.725 108.995Z" fill="white"/>
<path d="M147.532 137.857C143.419 132.804 147.532 113.512 150.737 103.866C153.942 94.2201 146.165 90.0892 146.165 90.0892L169.519 86.0441L169.198 84.8317C170.778 84.2118 172.182 83.2136 173.29 81.924L174.551 74.467C172.414 67.6859 162.297 64.4241 152.115 66.0228C141.624 67.6752 138.953 71.6022 138.953 71.6022C138.953 71.6022 124.135 71.3983 115.706 78.4262C107.277 85.454 112.416 96.602 115.086 100.529C117.355 103.582 119.902 106.416 122.693 108.995C122.693 108.995 123.313 117.053 123.932 120.98C124.552 124.907 114.915 135.894 114.915 135.894L128.9 157.17L144.744 144.778C144.744 144.778 161.837 143.512 167.564 141.956L169.22 141.258C169.22 141.258 151.667 142.911 147.532 137.857Z" fill="#2A85FF"/>
<path opacity="0.5" d="M147.532 137.857C143.419 132.804 147.532 113.512 150.737 103.866C153.942 94.2201 146.165 90.0892 146.165 90.0892L169.519 86.0441L169.198 84.8317C170.778 84.2118 172.182 83.2136 173.29 81.924L174.551 74.467C172.414 67.6859 162.297 64.4241 152.115 66.0228C141.624 67.6752 138.953 71.6022 138.953 71.6022C138.953 71.6022 124.135 71.3983 115.706 78.4262C107.277 85.454 112.416 96.602 115.086 100.529C117.355 103.582 119.902 106.416 122.693 108.995C122.693 108.995 123.313 117.053 123.932 120.98C124.552 124.907 114.915 135.894 114.915 135.894L128.9 157.17L144.744 144.778C144.744 144.778 161.837 143.512 167.564 141.956L169.22 141.258C169.22 141.258 151.667 142.911 147.532 137.857Z" fill="white"/>
<path d="M159.552 99.4993C159.552 99.4993 159.552 99.1774 159.552 98.6731C159.552 97.0743 159.819 93.6192 162.479 92.675C165.973 91.441 168.889 94.7459 168.889 94.7459L169.092 98.0507C168.589 97.4197 167.929 96.9342 167.178 96.6438C166.427 96.3535 165.613 96.2688 164.819 96.3983C162.774 96.8299 160.925 97.9184 159.552 99.4993Z" fill="#263238"/>
<path d="M165.522 106.108C165.522 107.815 165.052 109.209 164.454 109.209C163.856 109.209 163.386 107.815 163.386 106.108C163.386 104.402 163.845 103.007 164.454 103.007C165.063 103.007 165.522 104.392 165.522 106.108Z" fill="#263238"/>
<path d="M159.037 127.75C157.894 128.941 156.366 129.327 155.629 128.619C154.892 127.911 155.223 126.355 156.366 125.164C157.509 123.973 159.026 123.587 159.764 124.295C160.501 125.003 160.18 126.559 159.037 127.75Z" fill="#263238"/>
<path d="M122.725 108.995C122.725 108.995 123.345 117.053 123.965 120.98C124.584 124.907 114.916 135.894 114.916 135.894L128.9 157.17L144.744 144.778C144.744 144.778 167.179 143.125 169.22 141.258C171.26 139.392 171.282 118.952 171.282 118.952L176.623 115.851C176.623 115.851 171.688 94.3918 170.459 89.6064L169.22 84.864C169.22 84.864 176.421 82.3747 174.775 75.2074C173.13 68.04 162.639 64.4778 152.148 66.1087C141.656 67.7396 138.986 71.6881 138.986 71.6881C138.986 71.6881 124.168 71.4842 115.738 78.5121C107.309 85.5399 112.448 96.6879 115.119 100.615C117.391 103.638 119.938 106.443 122.725 108.995V108.995Z" stroke="#263238" stroke-width="0.75" stroke-linecap="round" stroke-linejoin="round"/>
<path d="M142.479 88.748C146.186 86.2695 169.188 84.8317 169.188 84.8317C169.188 84.8317 176.388 82.3425 174.743 75.1751C173.098 68.0078 162.607 64.4456 152.115 66.0765C141.624 67.7074 138.953 71.6558 138.953 71.6558C138.953 71.6558 124.135 71.452 115.706 78.4798C107.277 85.5077 112.416 96.6557 115.086 100.583C117.355 103.635 119.902 106.469 122.693 109.048C122.693 109.048 123.035 113.469 123.462 117.364L129.872 119.177L136.87 115.454L143.868 113.801C143.868 113.801 138.718 109.874 141.603 106.162C144.487 102.45 149.829 101.205 150.032 98.308C150.235 95.411 138.772 91.2265 142.479 88.748Z" fill="#263238" stroke="#263238" stroke-width="0.75" stroke-linecap="round" stroke-linejoin="round"/>
<path d="M164.937 76.7417C164.937 76.7417 162.522 72.2996 166.945 73.1043C171.368 73.9091 171.368 81.5914 167.747 83.2009C164.125 84.8103 144.425 81.1837 133.56 84.4133C122.694 87.6429 115.066 96.5269 115.066 96.5269" stroke="white" stroke-miterlimit="10" stroke-linecap="round"/>
<path d="M121.101 103.394C121.101 103.394 129.551 96.13 136.378 94.9175C143.205 93.705 146.837 93.705 139.198 98.1365C131.56 102.568 136.784 101.763 141.613 100.154" stroke="white" stroke-miterlimit="10" stroke-linecap="round"/>
<path d="M138.772 119.327C138.772 119.327 137.543 106.312 131.165 105.905C124.787 105.497 124.99 114.789 126.892 121.194C128.793 127.6 133.302 129.66 136.966 126.355" fill="#2A85FF"/>
<g opacity="0.5">
<path d="M138.772 119.327C138.772 119.327 137.543 106.312 131.165 105.905C124.787 105.497 124.99 114.789 126.892 121.194C128.793 127.6 133.302 129.66 136.966 126.355" fill="white"/>
<path d="M138.772 119.327C138.772 119.327 137.543 106.312 131.165 105.905C124.787 105.497 124.99 114.789 126.892 121.194C128.793 127.6 133.302 129.66 136.966 126.355" stroke="#263238" stroke-width="0.75" stroke-linecap="round" stroke-linejoin="round"/>
</g>
<path d="M138.772 119.327C138.772 119.327 137.543 106.312 131.165 105.905C124.787 105.497 124.99 114.789 126.892 121.194C128.793 127.6 133.302 129.66 136.966 126.355" stroke="#263238" stroke-width="0.75" stroke-linecap="round" stroke-linejoin="round"/>
<path d="M115.48 128.007L136.057 159.413L126.591 171.602C122.328 163.342 117.591 155.339 112.403 147.632C105.406 137.718 104.583 136.065 104.583 136.065L115.48 128.007Z" fill="white"/>
<path d="M115.48 128.007L104.583 136.066C104.583 136.066 105.192 137.278 109.679 143.748L121.196 136.731L115.48 128.007Z" fill="#2A85FF"/>
<path opacity="0.5" d="M115.48 128.007L104.583 136.066C104.583 136.066 105.192 137.278 109.679 143.748L121.196 136.731L115.48 128.007Z" fill="white"/>
<path d="M115.48 128.007L136.057 159.413L126.591 171.602C122.328 163.342 117.591 155.339 112.403 147.632C105.406 137.718 104.583 136.065 104.583 136.065L115.48 128.007Z" stroke="#263238" stroke-width="0.75" stroke-linecap="round" stroke-linejoin="round"/>
<path d="M168.395 206.108C168.395 206.108 171.685 199.284 172.305 194.949C172.924 190.614 173.127 188.125 175.595 186.065C178.063 184.005 186.086 175.732 187.347 172.632C188.608 169.531 189.398 172.428 190.018 174.906C190.638 177.385 190.424 179.66 188.373 181.108C186.927 182.185 185.615 183.432 184.463 184.82L186.311 186.269C186.311 186.269 212.026 176.559 214.707 175.539C217.389 174.52 219.846 175.325 220.049 177.396C220.252 179.466 219.44 179.67 218.201 180.293C216.962 180.915 203.394 185.657 201.535 186.483L199.686 187.31L201.129 188.758C201.129 188.758 208.532 188.554 212.24 188.35C215.947 188.147 221.492 187.524 222.314 188.758C222.681 189.31 222.822 189.984 222.706 190.637C222.591 191.291 222.228 191.875 221.695 192.267C221.262 192.683 220.741 192.996 220.172 193.182C219.602 193.367 218.997 193.421 218.404 193.34C216.556 193.34 200.712 194.574 200.712 194.574L201.129 196.848C201.129 196.848 217.998 199.531 218.607 200.357C219.216 201.183 219.227 201.601 218.607 202.835C217.987 204.069 217.539 204.08 215.936 204.08C214.334 204.08 200.979 202.009 200.979 202.009C200.979 202.009 207.56 205.732 208.383 206.355C209.205 206.977 212.079 207.428 211.257 208.833C210.434 210.239 210.028 210.689 208.789 210.485C207.55 210.282 198.714 206.355 198.714 206.355C198.714 206.355 189.868 207.589 186.962 207.803C184.823 207.903 182.68 207.831 180.552 207.589L172.326 212.953L168.395 206.108Z" fill="white" stroke="#263238" stroke-width="0.75" stroke-linecap="round" stroke-linejoin="round"/>
<path d="M109.979 196.805C109.979 196.805 104.007 171.805 101.539 166.226C99.0712 160.647 85.0865 155.496 78.2918 167.675C71.4971 179.853 77.6722 193.704 80.1508 203.618C82.6293 213.533 98.2486 258.339 100.514 263.951C102.778 269.562 106.924 268.243 109.156 267.674C111.389 267.105 173.952 216.43 173.952 216.43L169.016 205.282L120.47 230.314L109.979 196.805Z" fill="white"/>
<path d="M108.228 251.773C109.813 246.936 111.642 242.184 113.709 237.535C115.995 232.942 102.737 248.103 99.9911 239.831C97.2455 231.558 79.8741 190.228 83.0685 176.451C84.4541 170.05 88.1832 164.406 93.5169 160.636C88.4209 159.423 82.1817 160.711 78.293 167.685C71.5089 179.874 77.6733 193.715 80.1519 203.629C82.6304 213.543 98.2497 258.35 100.515 263.961C102.78 269.573 106.925 268.253 109.158 267.685C110.803 267.234 144.413 240.271 162.575 225.646L108.228 251.773Z" fill="#2A85FF"/>
<path opacity="0.5" d="M108.228 251.773C109.813 246.936 111.642 242.184 113.709 237.535C115.995 232.942 102.737 248.103 99.9911 239.831C97.2455 231.558 79.8741 190.228 83.0685 176.451C84.4541 170.05 88.1832 164.406 93.5169 160.636C88.4209 159.423 82.1817 160.711 78.293 167.685C71.5089 179.874 77.6733 193.715 80.1519 203.629C82.6304 213.543 98.2497 258.35 100.515 263.961C102.78 269.573 106.925 268.253 109.158 267.685C110.803 267.234 144.413 240.271 162.575 225.646L108.228 251.773Z" fill="white"/>
<path d="M109.979 196.805C109.979 196.805 104.007 171.805 101.539 166.226C99.0712 160.647 85.0865 155.496 78.2918 167.675C71.4971 179.853 77.6722 193.704 80.1508 203.619C82.6293 213.533 98.2486 258.339 100.514 263.951C102.778 269.562 106.924 268.243 109.156 267.674C111.389 267.105 173.952 216.43 173.952 216.43L169.016 205.282L120.47 230.314L109.979 196.805Z" stroke="#263238" stroke-width="0.75" stroke-linecap="round" stroke-linejoin="round"/>
<path d="M161.816 209.412L167.372 220.776" stroke="#263238" stroke-width="0.75" stroke-linecap="round" stroke-linejoin="round"/>
<path d="M31.3165 152.406L2.89844 172.202C2.89844 172.202 16.9045 187.074 15.4622 226.086C14.3939 255.882 18.3147 289.712 24.009 296.59H54.2647C54.2647 296.59 43.8055 238.65 44.5534 205.453C45.141 180.228 37.5984 162.717 31.3165 152.406Z" fill="white" stroke="#263238" stroke-width="0.75" stroke-linecap="round" stroke-linejoin="round"/>
<path d="M34.7345 152.406L6.31641 172.202C6.31641 172.202 20.3225 187.074 18.8695 226.086C17.8012 255.882 21.722 289.712 27.4163 296.59H57.6826C57.6826 296.59 47.2342 238.65 47.982 205.453C48.5483 180.228 41.0057 162.717 34.7345 152.406Z" fill="#263238" stroke="#263238" stroke-width="0.75" stroke-linecap="round" stroke-linejoin="round"/>
<path d="M31.3166 152.406H34.7353L6.31722 172.202H2.90918L31.3166 152.406Z" fill="white" stroke="#263238" stroke-width="0.75" stroke-linecap="round" stroke-linejoin="round"/>
</svg>
