<svg width="32" height="32" viewBox="0 0 32 32" fill="none" xmlns="http://www.w3.org/2000/svg">
<path d="M12.1916 27.7095V23.6203C12.1916 22.5841 13.0342 21.7423 14.0779 21.7358H17.9101C18.9585 21.7358 19.8084 22.5795 19.8084 23.6203V27.6976C19.8083 28.5964 20.5387 29.3268 21.4439 29.3333H24.0584C25.2795 29.3364 26.4517 28.8571 27.3162 28.0009C28.1808 27.1448 28.6667 25.9823 28.6667 24.77V13.1545C28.6667 12.1752 28.2294 11.2463 27.4728 10.618L18.5906 3.56568C17.038 2.33215 14.8205 2.372 13.3139 3.6605L4.62268 10.618C3.83032 11.2278 3.35674 12.1594 3.33333 13.1545V24.7582C3.33333 27.2849 5.39651 29.3333 7.94156 29.3333H10.4964C10.9322 29.3364 11.3513 29.1668 11.6606 28.8619C11.9699 28.557 12.1439 28.1422 12.1439 27.7095H12.1916Z" fill="#2A85FF"/>
</svg>
