<svg width="13" height="14" viewBox="0 0 13 14" fill="none" xmlns="http://www.w3.org/2000/svg">
<path d="M7.54297 13.2148C7.30859 13.4648 6.98828 13.5898 6.58203 13.5898C6.17578 13.5898 5.85156 13.4648 5.60938 13.2148C5.375 12.957 5.25781 12.6133 5.25781 12.1836V8.5625H1.8125C1.39844 8.5625 1.06641 8.44531 0.816406 8.21094C0.566406 7.97656 0.441406 7.66016 0.441406 7.26172C0.441406 6.86328 0.566406 6.54688 0.816406 6.3125C1.06641 6.07812 1.39844 5.96094 1.8125 5.96094H5.25781V2.31641C5.25781 1.89453 5.375 1.55859 5.60938 1.30859C5.85156 1.05078 6.17578 0.921875 6.58203 0.921875C6.98828 0.921875 7.30859 1.05078 7.54297 1.30859C7.77734 1.55859 7.89453 1.89453 7.89453 2.31641V5.96094H11.3398C11.7539 5.96094 12.082 6.07812 12.3242 6.3125C12.5742 6.54688 12.6992 6.86328 12.6992 7.26172C12.6992 7.66016 12.5742 7.97656 12.3242 8.21094C12.0742 8.44531 11.7422 8.5625 11.3281 8.5625H7.89453V12.1953C7.89453 12.6172 7.77734 12.957 7.54297 13.2148Z" fill="#1A1A1A"/>
</svg>
