<svg width="32" height="32" viewBox="0 0 32 32" fill="none" xmlns="http://www.w3.org/2000/svg">
<path d="M8.72768 16.75H14.8549V22.8772C14.8549 23.5 15.3672 24.0223 16 24.0223C16.6328 24.0223 17.1451 23.5 17.1451 22.8772V16.75H23.2723C23.8951 16.75 24.4174 16.2377 24.4174 15.6049C24.4174 14.9721 23.8951 14.4598 23.2723 14.4598H17.1451V8.33259C17.1451 7.70982 16.6328 7.1875 16 7.1875C15.3672 7.1875 14.8549 7.70982 14.8549 8.33259V14.4598H8.72768C8.10491 14.4598 7.58259 14.9721 7.58259 15.6049C7.58259 16.2377 8.10491 16.75 8.72768 16.75Z" fill="#FDFDFD"/>
</svg>
