<svg width="26" height="17" viewBox="0 0 26 17" fill="none" xmlns="http://www.w3.org/2000/svg">
<path d="M2.64648 8.35547H10.7236C12.1738 8.35547 12.9033 7.63477 12.9033 6.19336V2.53711C12.9033 1.0957 12.1738 0.375 10.7236 0.375H2.64648C1.19629 0.375 0.466797 1.0957 0.466797 2.53711V6.19336C0.466797 7.63477 1.19629 8.35547 2.64648 8.35547ZM17.7021 15.7471H23.3447C24.7949 15.7471 25.5244 15.0352 25.5244 13.585V3.85547C25.5244 2.41406 24.7949 1.70215 23.3447 1.70215H17.7021C16.2607 1.70215 15.5312 2.41406 15.5312 3.85547V13.585C15.5312 15.0352 16.2607 15.7471 17.7021 15.7471ZM2.85742 6.70312C2.37402 6.70312 2.11914 6.44824 2.11914 5.94727V2.7832C2.11914 2.27344 2.37402 2.02734 2.85742 2.02734H10.5039C10.9961 2.02734 11.251 2.27344 11.251 2.7832V5.94727C11.251 6.44824 10.9961 6.70312 10.5039 6.70312H2.85742ZM17.9131 14.1035C17.4385 14.1035 17.1748 13.8486 17.1748 13.3477V4.10156C17.1748 3.5918 17.4385 3.3457 17.9131 3.3457H23.125C23.6172 3.3457 23.8721 3.5918 23.8721 4.10156V13.3477C23.8721 13.8486 23.6172 14.1035 23.125 14.1035H17.9131ZM4.85254 16.8809H11.708C13.1494 16.8809 13.8877 16.1689 13.8877 14.7188V12.2402C13.8877 10.7988 13.1494 10.0869 11.708 10.0869H4.85254C3.40234 10.0869 2.67285 10.7988 2.67285 12.2402V14.7188C2.67285 16.1689 3.40234 16.8809 4.85254 16.8809ZM5.06348 15.2373C4.58008 15.2373 4.3252 14.9824 4.3252 14.4814V12.4863C4.3252 11.9854 4.58008 11.7393 5.06348 11.7393H11.4883C11.9717 11.7393 12.2354 11.9854 12.2354 12.4863V14.4814C12.2354 14.9824 11.9717 15.2373 11.4883 15.2373H5.06348Z" fill="#4F555D"/>
</svg>
