<svg width="32" height="32" viewBox="0 0 32 32" fill="none" xmlns="http://www.w3.org/2000/svg">
<path d="M4.00902 11.6963C3.93407 10.2077 4.32786 8.73726 5.12474 7.50438L5.33232 7.20123L5.34947 7.18462L5.49358 7.01552L5.64455 6.84286L5.66171 6.82506C5.94993 6.52959 6.26903 6.26971 6.61329 6.0478L6.71051 5.98625L6.80772 5.92914L7.03647 5.79742C7.12911 5.75351 7.22976 5.7013 7.3224 5.65739C7.38988 5.63129 7.45736 5.59688 7.52484 5.57077C7.6518 5.51737 7.78676 5.46516 7.92172 5.42125C7.96746 5.3987 8.0155 5.3809 8.06468 5.36904L8.11929 5.34708L8.17905 5.32513C8.79438 5.1412 9.42686 5.01423 10.0662 4.95608L10 4.96384V3.63765C10 3.10591 10.4289 2.67597 10.9594 2.67597C11.4899 2.67597 11.92 3.10591 11.92 3.63765V7.82931C11.92 8.36105 11.4899 8.79219 10.9594 8.79219C10.4289 8.79219 10 8.36105 10 7.82931L10.0001 6.86023C9.37026 6.92329 8.75185 7.07999 8.16533 7.32821C6.65178 8.00911 5.92993 9.30581 5.86153 11.3608L5.85614 11.6915V12.2077H26.1447V11.6785C26.1836 10.7268 25.9926 9.77984 25.5877 8.92426C25.1989 8.19209 24.5767 7.62368 23.8252 7.31515C23.3467 7.10915 22.8455 6.96542 22.3333 6.88701L22 6.8465L22 7.82447C22 8.35392 21.5704 8.78275 21.04 8.78275C20.5096 8.78275 20.08 8.35392 20.08 7.82447L20.08 6.7745L11.9293 6.77523V4.86827L20.08 4.86784L20.08 3.63201C20.0752 3.10256 20.5024 2.67014 21.0328 2.66653C21.5632 2.66296 21.9964 3.08819 22 3.61764L22.0008 4.95646C22.4666 5.00242 22.9287 5.08369 23.3834 5.1998L23.8355 5.3275C23.8721 5.33462 23.8996 5.34412 23.9499 5.36192C24.0002 5.37972 24.0426 5.39752 24.0929 5.41413C24.2267 5.45804 24.3514 5.51025 24.4806 5.56365C24.5549 5.58976 24.6236 5.62417 24.6819 5.65027C24.7825 5.69418 24.8855 5.74639 24.9678 5.7903C25.0525 5.83421 25.1337 5.88286 25.2046 5.92202C25.2755 5.96118 25.3304 6.00509 25.3899 6.04068C25.6489 6.208 25.8951 6.39668 26.125 6.60422L26.3495 6.81794L26.3597 6.83574L26.5166 7.00217L26.664 7.1775L26.672 7.19411C27.5345 8.38698 27.9985 9.83565 28 11.3199L27.9907 11.6915V12.2077H28V22.5467C28 27.0553 25.4821 29.3332 20.4921 29.3332H11.4964C6.51788 29.3332 4 27.0553 4 22.5467V12.2077H4.00902V11.6963ZM21.4878 21.6615C20.8698 21.6615 20.3777 22.1691 20.3777 22.7946C20.3891 23.4201 20.8813 23.9276 21.4878 23.9276C22.0944 23.9276 22.5866 23.4201 22.5866 22.7946C22.5866 22.1691 22.0944 21.6615 21.4878 21.6615ZM16.0057 21.6497C15.3877 21.6615 14.8956 22.1691 14.8956 22.7946C14.8956 23.4201 15.3991 23.9276 16.0057 23.9276C16.6123 23.9276 17.1044 23.4201 17.1044 22.7828C17.093 22.1691 16.6123 21.6615 16.0057 21.6497ZM10.5122 21.6497C9.89413 21.6497 9.402 22.1691 9.41345 22.7946C9.41345 23.4201 9.90558 23.9276 10.5122 23.9276C11.1187 23.9276 11.6109 23.4083 11.6109 22.7828C11.6109 22.1572 11.1187 21.6497 10.5122 21.6497ZM21.4878 16.8225C20.8698 16.8225 20.3891 17.33 20.3891 17.9556C20.3891 18.5811 20.8813 19.0886 21.4878 19.0886C22.0944 19.0886 22.5866 18.5811 22.5866 17.9556C22.5866 17.33 22.0944 16.8225 21.4878 16.8225ZM16.0057 16.8107C15.3877 16.8225 14.8956 17.33 14.8956 17.9556C14.8956 18.5811 15.3991 19.0886 16.0057 19.0886C16.6123 19.0886 17.1044 18.5811 17.1044 17.9438C17.1044 17.33 16.6123 16.8225 16.0057 16.8107ZM10.5236 16.8107C9.90558 16.8107 9.41345 17.33 9.41345 17.9556C9.41345 18.5811 9.90558 19.0886 10.5122 19.0886C11.1302 19.0886 11.6223 18.5693 11.6109 17.9438C11.6109 17.3182 11.1187 16.8107 10.5236 16.8107Z" fill="#2A85FF"/>
</svg>
