<svg width="21" height="24" viewBox="0 0 21 24" fill="none" xmlns="http://www.w3.org/2000/svg">
<path d="M6.10634 23.0214H15.3374C16.8842 23.0214 17.8787 22.0873 17.959 20.5404L18.632 6.0761H19.7369C20.2492 6.0761 20.6409 5.67432 20.6409 5.17208C20.6409 4.66985 20.2392 4.28816 19.7369 4.28816H15.2771V2.78146C15.2771 1.23458 14.2927 0.330566 12.6153 0.330566H8.7983C7.12085 0.330566 6.13647 1.23458 6.13647 2.78146V4.28816H1.69674C1.19451 4.28816 0.792725 4.6799 0.792725 5.17208C0.792725 5.68436 1.19451 6.0761 1.69674 6.0761H2.80165L3.47464 20.5404C3.555 22.0973 4.53938 23.0214 6.10634 23.0214ZM8.01482 2.87186C8.01482 2.35958 8.37643 2.02811 8.92888 2.02811H12.4847C13.0371 2.02811 13.3988 2.35958 13.3988 2.87186V4.28816H8.01482V2.87186ZM6.30723 21.2234C5.75478 21.2234 5.35299 20.8116 5.32286 20.219L4.64987 6.0761H16.7537L16.1008 20.219C16.0807 20.8216 15.6889 21.2234 15.1164 21.2234H6.30723ZM7.75366 19.6062C8.18558 19.6062 8.45679 19.335 8.44674 18.9332L8.1454 8.42655C8.13536 8.02476 7.85411 7.7636 7.44228 7.7636C7.0204 7.7636 6.7492 8.03481 6.75924 8.43659L7.06058 18.9433C7.07063 19.3451 7.35188 19.6062 7.75366 19.6062ZM10.7168 19.6062C11.1387 19.6062 11.43 19.3451 11.43 18.9433V8.43659C11.43 8.03481 11.1387 7.7636 10.7168 7.7636C10.295 7.7636 10.0137 8.03481 10.0137 8.43659V18.9433C10.0137 19.3451 10.295 19.6062 10.7168 19.6062ZM13.68 19.6163C14.0818 19.6163 14.363 19.3451 14.3731 18.9433L14.6744 8.43659C14.6845 8.03481 14.4133 7.77365 13.9914 7.77365C13.5796 7.77365 13.2983 8.03481 13.2883 8.43659L12.9869 18.9433C12.9769 19.335 13.2481 19.6163 13.68 19.6163Z" fill="#F24E1E"/>
</svg>
