<svg width="26" height="28" viewBox="0 0 26 28" fill="none" xmlns="http://www.w3.org/2000/svg">
<path d="M9.19164 25.7094V21.6203C9.19162 20.5841 10.0342 19.7422 11.0779 19.7357H14.9101C15.9585 19.7357 16.8084 20.5795 16.8084 21.6203V25.6976C16.8083 26.5963 17.5387 27.3267 18.4439 27.3333H21.0584C22.2795 27.3364 23.4517 26.857 24.3162 26.0009C25.1808 25.1448 25.6667 23.9823 25.6667 22.77V11.1544C25.6667 10.1751 25.2294 9.24624 24.4728 8.61796L15.5906 1.56565C14.038 0.332123 11.8205 0.37197 10.3139 1.66047L1.62268 8.61796C0.830321 9.22772 0.356737 10.1594 0.333334 11.1544V22.7581C0.333334 25.2849 2.39651 27.3333 4.94157 27.3333H7.49639C7.93223 27.3364 8.35132 27.1667 8.66063 26.8619C8.96994 26.557 9.1439 26.1422 9.14389 25.7094H9.19164Z" fill="#2A85FF"/>
</svg>
