<svg width="18" height="17" viewBox="0 0 18 17" fill="none" xmlns="http://www.w3.org/2000/svg">
<path d="M1.2154 14.7723C0.79352 15.1942 0.773431 15.9475 1.22544 16.3895C1.6674 16.8315 2.42075 16.8214 2.84263 16.3995L8.98995 10.2422L15.1473 16.3995C15.5792 16.8315 16.3225 16.8315 16.7645 16.3895C17.1964 15.9375 17.2065 15.2042 16.7645 14.7723L10.6172 8.61495L16.7645 2.46763C17.2065 2.03571 17.2065 1.2924 16.7645 0.85044C16.3125 0.41852 15.5792 0.408476 15.1473 0.840395L8.98995 6.99776L2.84263 0.840395C2.42075 0.41852 1.65736 0.398431 1.22544 0.85044C0.783476 1.2924 0.79352 2.04575 1.2154 2.46763L7.37276 8.61495L1.2154 14.7723Z" fill="#8A939F"/>
</svg>
