<svg width="32" height="32" viewBox="0 0 32 32" fill="none" xmlns="http://www.w3.org/2000/svg">
<path d="M8.21527 21.7722C7.7934 22.1941 7.77331 22.9474 8.22532 23.3894C8.66728 23.8313 9.42063 23.8213 9.84251 23.3994L15.9898 17.2421L22.1472 23.3994C22.5791 23.8313 23.3224 23.8313 23.7644 23.3894C24.1963 22.9374 24.2063 22.2041 23.7644 21.7722L17.6171 15.6148L23.7644 9.46751C24.2063 9.03559 24.2063 8.29228 23.7644 7.85032C23.3124 7.4184 22.5791 7.40835 22.1472 7.84027L15.9898 13.9976L9.84251 7.84027C9.42063 7.4184 8.65724 7.39831 8.22532 7.85032C7.78335 8.29228 7.7934 9.04563 8.21527 9.46751L14.3726 15.6148L8.21527 21.7722Z" fill="#8A939F"/>
</svg>
